<?xml version="1.0" encoding="utf-8"?>
<!-- Generator: Adobe Illustrator 16.0.0, SVG Export Plug-In . SVG Version: 6.00 Build 0)  -->
<!DOCTYPE svg PUBLIC "-//W3C//DTD SVG 1.1//EN" "http://www.w3.org/Graphics/SVG/1.1/DTD/svg11.dtd">
<svg version="1.1" id="Layer_1" xmlns="http://www.w3.org/2000/svg" xmlns:xlink="http://www.w3.org/1999/xlink" x="0px" y="0px"
	 width="500px" height="500px" viewBox="0 0 500 500" enable-background="new 0 0 500 500" xml:space="preserve">
<path fill="#B48D71" d="M376.104,445.719c-0.853,6.571-6.872,11.208-13.444,10.356L87.845,420.438
	c-6.573-0.853-11.21-6.871-10.357-13.443l44.113-340.191c0.853-6.572,6.872-11.209,13.444-10.357L409.86,92.083
	c6.573,0.853,11.21,6.872,10.357,13.444L376.104,445.719z"/>
<path fill="#D8A580" d="M373.921,438.703c-0.838,6.464-6.76,11.024-13.224,10.187L90.387,413.838
	c-6.464-0.839-11.025-6.759-10.188-13.224L123.59,66.002c0.838-6.465,6.76-11.026,13.224-10.188l270.311,35.053
	c6.464,0.838,11.025,6.759,10.188,13.223L373.921,438.703z"/>
<rect x="132.045" y="98.029" transform="matrix(0.9917 0.1286 -0.1286 0.9917 33.5551 -30.0821)" fill="#F2F2F2" width="235.377" height="293.562"/>
<rect x="208.686" y="61.232" transform="matrix(0.9917 0.1286 -0.1286 0.9917 13.174 -34.0719)" fill="#DEDDDD" width="123.5" height="47.5"/>
<rect x="207.159" y="84.883" transform="matrix(0.9917 0.1286 -0.1286 0.9917 14.6757 -33.7777)" fill="#C9C9C9" width="123.5" height="23.75"/>
<rect x="192.151" y="268.346" transform="matrix(0.9917 0.1286 -0.1286 0.9917 37.7343 -31.7386)" fill="#DEDDDD" width="145.001" height="16"/>
<rect x="188.614" y="295.617" transform="matrix(0.9917 0.1286 -0.1286 0.9917 41.2122 -31.0575)" fill="#DEDDDD" width="145" height="16"/>
<rect x="185.078" y="322.889" transform="matrix(0.9917 0.1286 -0.1286 0.9917 44.6898 -30.3763)" fill="#DEDDDD" width="145" height="16"/>
<rect x="181.542" y="350.16" transform="matrix(0.9917 0.1286 -0.1286 0.9917 48.1675 -29.6951)" fill="#DEDDDD" width="145" height="16"/>
<rect x="156.479" y="255.518" transform="matrix(0.9917 0.1286 -0.1286 0.9917 35.261 -19.1231)" fill="#9FD4B1" width="18.5" height="16"/>
<rect x="152.943" y="282.789" transform="matrix(0.9917 0.1286 -0.1286 0.9917 38.7363 -18.4412)" fill="#9FD4B1" width="18.501" height="16"/>
<rect x="149.407" y="310.061" transform="matrix(0.9917 0.1286 -0.1286 0.9917 42.2181 -17.7615)" fill="#9FD4B1" width="18.499" height="16"/>
<rect x="145.87" y="337.332" transform="matrix(0.9917 0.1286 -0.1286 0.9917 45.7123 -17.0854)" fill="#9FD4B1" width="18.5" height="16"/>
<g>
	
		<line fill="none" stroke="#DEDDDD" stroke-width="10" stroke-miterlimit="10" x1="237.774" y1="155.114" x2="204.781" y2="174.265"/>
	
		<line fill="none" stroke="#DEDDDD" stroke-width="10" stroke-miterlimit="10" x1="250.496" y1="160.671" x2="259.644" y2="208.532"/>
	
		<line fill="none" stroke="#DEDDDD" stroke-width="10" stroke-miterlimit="10" x1="273.474" y1="214.195" x2="311.539" y2="191.924"/>
	<circle fill="none" stroke="#9FD4B1" stroke-width="10" stroke-miterlimit="10" cx="195.25" cy="179.224" r="10.75"/>
	<circle fill="none" stroke="#9FD4B1" stroke-width="10" stroke-miterlimit="10" cx="249.319" cy="149.678" r="10.75"/>
	<circle fill="none" stroke="#9FD4B1" stroke-width="10" stroke-miterlimit="10" cx="261.923" cy="219.667" r="10.75"/>
	<circle fill="none" stroke="#9FD4B1" stroke-width="10" stroke-miterlimit="10" cx="321.353" cy="187.563" r="10.75"/>
</g>
</svg>
